{
	"asset":{
		"generator":"Khronos glTF Blender I/O v4.5.48",
		"version":"2.0"
	},
	"extensionsUsed":[
		"KHR_lights_punctual"
	],
	"extensionsRequired":[
		"KHR_lights_punctual"
	],
	"extensions":{
		"KHR_lights_punctual":{
			"lights":[
				{
					"color":[
						1,
						1,
						1
					],
					"intensity":79.57747154594767,
					"type":"point",
					"name":"Light"
				}
			]
		}
	},
	"scene":0,
	"scenes":[
		{
			"name":"Scene",
			"nodes":[
				0,
				1,
				2,
				3,
				4,
				5,
				6,
				7,
				8
			]
		}
	],
	"nodes":[
		{
			"extensions":{
				"KHR_lights_punctual":{
					"light":0
				}
			},
			"name":"Light",
			"rotation":[
				-0.28416627645492554,
				0.7269423007965088,
				0.34203392267227173,
				0.5232754945755005
			],
			"translation":[
				3.8530638217926025,
				4.340666770935059,
				3.7021985054016113
			]
		},
		{
			"mesh":0,
			"name":"Cube",
			"scale":[
				1,
				0.10000002384185791,
				1
			],
			"translation":[
				0.29931050539016724,
				1.1451916694641113,
				-0.0011661993339657784
			]
		},
		{
			"mesh":1,
			"name":"Cylinder",
			"scale":[
				-0.06647606939077377,
				-0.7312367558479309,
				-0.06647606939077377
			],
			"translation":[
				-0.4483686089515686,
				0.3246822953224182,
				0.8347276449203491
			]
		},
		{
			"mesh":2,
			"name":"Cylinder.001",
			"scale":[
				-0.06647606939077377,
				-0.7312367558479309,
				-0.06647606939077377
			],
			"translation":[
				1.0798224210739136,
				0.3210029602050781,
				0.8750854134559631
			]
		},
		{
			"mesh":3,
			"name":"Cylinder.002",
			"scale":[
				-0.06647606939077377,
				-0.7312367558479309,
				-0.06647606939077377
			],
			"translation":[
				1.0868664979934692,
				0.3171679973602295,
				-0.8917136192321777
			]
		},
		{
			"mesh":4,
			"name":"Cylinder.003",
			"scale":[
				-0.06647606939077377,
				-0.7312367558479309,
				-0.06647606939077377
			],
			"translation":[
				-0.5135565996170044,
				0.3067472577095032,
				-0.8567511439323425
			]
		},
		{
			"mesh":5,
			"name":"Cylinder.004",
			"scale":[
				0.04313427209854126,
				0.47447699308395386,
				0.04313427209854126
			],
			"translation":[
				1.1567039489746094,
				1.6822787523269653,
				-0.830909788608551
			]
		},
		{
			"mesh":6,
			"name":"Cylinder.005",
			"scale":[
				0.04313427209854126,
				0.47447699308395386,
				0.04313427209854126
			],
			"translation":[
				1.209794282913208,
				1.6707541942596436,
				0.8387141823768616
			]
		},
		{
			"mesh":7,
			"name":"Cube.001",
			"rotation":[
				-0.4879029095172882,
				0.5155150294303894,
				0.48357686400413513,
				0.5121996402740479
			],
			"scale":[
				0.9503840804100037,
				0.09497571736574173,
				0.7212536931037903
			],
			"translation":[
				1.2536711692810059,
				2.5577778816223145,
				-0.008418139070272446
			]
		}
	],
	"materials":[
		{
			"doubleSided":true,
			"name":"chair",
			"pbrMetallicRoughness":{
				"baseColorFactor":[
					0.800315260887146,
					0.17626342177391052,
					0.02347942814230919,
					1
				],
				"metallicFactor":0
			}
		},
		{
			"doubleSided":true,
			"name":"Material.005",
			"pbrMetallicRoughness":{
				"baseColorFactor":[
					0.8002663850784302,
					0.17706528306007385,
					0.023207712918519974,
					1
				],
				"metallicFactor":0,
				"roughnessFactor":0.5
			}
		},
		{
			"doubleSided":true,
			"name":"Material.004",
			"pbrMetallicRoughness":{
				"baseColorFactor":[
					0.8003076910972595,
					0.1765453964471817,
					0.022549286484718323,
					1
				],
				"metallicFactor":0,
				"roughnessFactor":0.5
			}
		},
		{
			"doubleSided":true,
			"name":"Material.007",
			"pbrMetallicRoughness":{
				"baseColorFactor":[
					0.8001648187637329,
					0.14361704885959625,
					0.029805833473801613,
					1
				],
				"metallicFactor":0,
				"roughnessFactor":0.5
			}
		},
		{
			"doubleSided":true,
			"name":"Material.006",
			"pbrMetallicRoughness":{
				"baseColorFactor":[
					0.800000011920929,
					0.17700634896755219,
					0.023199988529086113,
					1
				],
				"metallicFactor":0,
				"roughnessFactor":0.5
			}
		},
		{
			"doubleSided":true,
			"name":"Material.002",
			"pbrMetallicRoughness":{
				"baseColorFactor":[
					0.800000011920929,
					0.17700634896755219,
					0.023199988529086113,
					1
				],
				"metallicFactor":0,
				"roughnessFactor":0.5
			}
		},
		{
			"doubleSided":true,
			"name":"Material.003",
			"pbrMetallicRoughness":{
				"baseColorFactor":[
					0.8006302714347839,
					0.17701943218708038,
					0.023060688748955727,
					1
				],
				"metallicFactor":0,
				"roughnessFactor":0.5
			}
		},
		{
			"doubleSided":true,
			"name":"Material.001",
			"pbrMetallicRoughness":{
				"baseColorFactor":[
					0.8004969358444214,
					0.1771162897348404,
					0.023214397951960564,
					1
				],
				"metallicFactor":0,
				"roughnessFactor":0.5
			}
		}
	],
	"meshes":[
		{
			"name":"Cube.001",
			"primitives":[
				{
					"attributes":{
						"POSITION":0,
						"NORMAL":1,
						"TEXCOORD_0":2,
						"TANGENT":3
					},
					"indices":4,
					"material":0
				}
			]
		},
		{
			"name":"Cylinder",
			"primitives":[
				{
					"attributes":{
						"POSITION":5,
						"NORMAL":6,
						"TEXCOORD_0":7
					},
					"indices":8,
					"material":1
				}
			]
		},
		{
			"name":"Cylinder.001",
			"primitives":[
				{
					"attributes":{
						"POSITION":9,
						"NORMAL":10,
						"TEXCOORD_0":11
					},
					"indices":8,
					"material":2
				}
			]
		},
		{
			"name":"Cylinder.002",
			"primitives":[
				{
					"attributes":{
						"POSITION":12,
						"NORMAL":13,
						"TEXCOORD_0":14
					},
					"indices":8,
					"material":3
				}
			]
		},
		{
			"name":"Cylinder.003",
			"primitives":[
				{
					"attributes":{
						"POSITION":15,
						"NORMAL":16,
						"TEXCOORD_0":17
					},
					"indices":8,
					"material":4
				}
			]
		},
		{
			"name":"Cylinder.004",
			"primitives":[
				{
					"attributes":{
						"POSITION":18,
						"NORMAL":19,
						"TEXCOORD_0":20
					},
					"indices":8,
					"material":5
				}
			]
		},
		{
			"name":"Cylinder.005",
			"primitives":[
				{
					"attributes":{
						"POSITION":21,
						"NORMAL":22,
						"TEXCOORD_0":23
					},
					"indices":8,
					"material":6
				}
			]
		},
		{
			"name":"Cube.002",
			"primitives":[
				{
					"attributes":{
						"POSITION":24,
						"NORMAL":25,
						"TEXCOORD_0":26,
						"TANGENT":27
					},
					"indices":4,
					"material":7
				}
			]
		}
	],
	"accessors":[
		{
			"bufferView":0,
			"componentType":5126,
			"count":24,
			"max":[
				1,
				1,
				1
			],
			"min":[
				-1,
				-1,
				-1
			],
			"type":"VEC3"
		},
		{
			"bufferView":1,
			"componentType":5126,
			"count":24,
			"type":"VEC3"
		},
		{
			"bufferView":2,
			"componentType":5126,
			"count":24,
			"type":"VEC2"
		},
		{
			"bufferView":3,
			"componentType":5126,
			"count":24,
			"type":"VEC4"
		},
		{
			"bufferView":4,
			"componentType":5123,
			"count":36,
			"type":"SCALAR"
		},
		{
			"bufferView":5,
			"componentType":5126,
			"count":192,
			"max":[
				1,
				1,
				1
			],
			"min":[
				-1,
				-1,
				-1
			],
			"type":"VEC3"
		},
		{
			"bufferView":6,
			"componentType":5126,
			"count":192,
			"type":"VEC3"
		},
		{
			"bufferView":7,
			"componentType":5126,
			"count":192,
			"type":"VEC2"
		},
		{
			"bufferView":8,
			"componentType":5123,
			"count":372,
			"type":"SCALAR"
		},
		{
			"bufferView":9,
			"componentType":5126,
			"count":192,
			"max":[
				1,
				1,
				1
			],
			"min":[
				-1,
				-1,
				-1
			],
			"type":"VEC3"
		},
		{
			"bufferView":10,
			"componentType":5126,
			"count":192,
			"type":"VEC3"
		},
		{
			"bufferView":11,
			"componentType":5126,
			"count":192,
			"type":"VEC2"
		},
		{
			"bufferView":12,
			"componentType":5126,
			"count":192,
			"max":[
				1,
				1,
				1
			],
			"min":[
				-1,
				-1,
				-1
			],
			"type":"VEC3"
		},
		{
			"bufferView":13,
			"componentType":5126,
			"count":192,
			"type":"VEC3"
		},
		{
			"bufferView":14,
			"componentType":5126,
			"count":192,
			"type":"VEC2"
		},
		{
			"bufferView":15,
			"componentType":5126,
			"count":192,
			"max":[
				1,
				1,
				1
			],
			"min":[
				-1,
				-1,
				-1
			],
			"type":"VEC3"
		},
		{
			"bufferView":16,
			"componentType":5126,
			"count":192,
			"type":"VEC3"
		},
		{
			"bufferView":17,
			"componentType":5126,
			"count":192,
			"type":"VEC2"
		},
		{
			"bufferView":18,
			"componentType":5126,
			"count":192,
			"max":[
				1,
				1,
				1
			],
			"min":[
				-1,
				-1,
				-1
			],
			"type":"VEC3"
		},
		{
			"bufferView":19,
			"componentType":5126,
			"count":192,
			"type":"VEC3"
		},
		{
			"bufferView":20,
			"componentType":5126,
			"count":192,
			"type":"VEC2"
		},
		{
			"bufferView":21,
			"componentType":5126,
			"count":192,
			"max":[
				1,
				1,
				1
			],
			"min":[
				-1,
				-1,
				-1
			],
			"type":"VEC3"
		},
		{
			"bufferView":22,
			"componentType":5126,
			"count":192,
			"type":"VEC3"
		},
		{
			"bufferView":23,
			"componentType":5126,
			"count":192,
			"type":"VEC2"
		},
		{
			"bufferView":24,
			"componentType":5126,
			"count":24,
			"max":[
				1,
				1,
				1
			],
			"min":[
				-1,
				-1,
				-1
			],
			"type":"VEC3"
		},
		{
			"bufferView":25,
			"componentType":5126,
			"count":24,
			"type":"VEC3"
		},
		{
			"bufferView":26,
			"componentType":5126,
			"count":24,
			"type":"VEC2"
		},
		{
			"bufferView":27,
			"componentType":5126,
			"count":24,
			"type":"VEC4"
		}
	],
	"bufferViews":[
		{
			"buffer":0,
			"byteLength":288,
			"byteOffset":0,
			"target":34962
		},
		{
			"buffer":0,
			"byteLength":288,
			"byteOffset":288,
			"target":34962
		},
		{
			"buffer":0,
			"byteLength":192,
			"byteOffset":576,
			"target":34962
		},
		{
			"buffer":0,
			"byteLength":384,
			"byteOffset":768,
			"target":34962
		},
		{
			"buffer":0,
			"byteLength":72,
			"byteOffset":1152,
			"target":34963
		},
		{
			"buffer":0,
			"byteLength":2304,
			"byteOffset":1224,
			"target":34962
		},
		{
			"buffer":0,
			"byteLength":2304,
			"byteOffset":3528,
			"target":34962
		},
		{
			"buffer":0,
			"byteLength":1536,
			"byteOffset":5832,
			"target":34962
		},
		{
			"buffer":0,
			"byteLength":744,
			"byteOffset":7368,
			"target":34963
		},
		{
			"buffer":0,
			"byteLength":2304,
			"byteOffset":8112,
			"target":34962
		},
		{
			"buffer":0,
			"byteLength":2304,
			"byteOffset":10416,
			"target":34962
		},
		{
			"buffer":0,
			"byteLength":1536,
			"byteOffset":12720,
			"target":34962
		},
		{
			"buffer":0,
			"byteLength":2304,
			"byteOffset":14256,
			"target":34962
		},
		{
			"buffer":0,
			"byteLength":2304,
			"byteOffset":16560,
			"target":34962
		},
		{
			"buffer":0,
			"byteLength":1536,
			"byteOffset":18864,
			"target":34962
		},
		{
			"buffer":0,
			"byteLength":2304,
			"byteOffset":20400,
			"target":34962
		},
		{
			"buffer":0,
			"byteLength":2304,
			"byteOffset":22704,
			"target":34962
		},
		{
			"buffer":0,
			"byteLength":1536,
			"byteOffset":25008,
			"target":34962
		},
		{
			"buffer":0,
			"byteLength":2304,
			"byteOffset":26544,
			"target":34962
		},
		{
			"buffer":0,
			"byteLength":2304,
			"byteOffset":28848,
			"target":34962
		},
		{
			"buffer":0,
			"byteLength":1536,
			"byteOffset":31152,
			"target":34962
		},
		{
			"buffer":0,
			"byteLength":2304,
			"byteOffset":32688,
			"target":34962
		},
		{
			"buffer":0,
			"byteLength":2304,
			"byteOffset":34992,
			"target":34962
		},
		{
			"buffer":0,
			"byteLength":1536,
			"byteOffset":37296,
			"target":34962
		},
		{
			"buffer":0,
			"byteLength":288,
			"byteOffset":38832,
			"target":34962
		},
		{
			"buffer":0,
			"byteLength":288,
			"byteOffset":39120,
			"target":34962
		},
		{
			"buffer":0,
			"byteLength":192,
			"byteOffset":39408,
			"target":34962
		},
		{
			"buffer":0,
			"byteLength":384,
			"byteOffset":39600,
			"target":34962
		}
	],
	"buffers":[
		{
			"byteLength":39984,
			"uri":"chair-9eb517ef1f5cb4e8165e94b183cf512d.bin"
		}
	]
}
