{
	"asset":{
		"generator":"Khronos glTF Blender I/O v4.5.48",
		"version":"2.0"
	},
	"extensionsUsed":[
		"KHR_lights_punctual"
	],
	"extensionsRequired":[
		"KHR_lights_punctual"
	],
	"extensions":{
		"KHR_lights_punctual":{
			"lights":[
				{
					"color":[
						1,
						1,
						1
					],
					"intensity":79.57747154594767,
					"type":"point",
					"name":"Light"
				}
			]
		}
	},
	"scene":0,
	"scenes":[
		{
			"name":"Scene",
			"nodes":[
				0,
				1,
				2,
				3,
				4,
				5
			]
		}
	],
	"nodes":[
		{
			"mesh":0,
			"name":"Cube",
			"translation":[
				0,
				1,
				0
			]
		},
		{
			"extensions":{
				"KHR_lights_punctual":{
					"light":0
				}
			},
			"name":"Light",
			"rotation":[
				-0.28416627645492554,
				0.7269423007965088,
				0.34203392267227173,
				0.5232754945755005
			],
			"translation":[
				4.076245307922363,
				5.903861999511719,
				-1.0054539442062378
			]
		},
		{
			"mesh":1,
			"name":"Cube.001",
			"translation":[
				0,
				1,
				0
			]
		},
		{
			"mesh":2,
			"name":"Cube.002",
			"translation":[
				0,
				1,
				0
			]
		},
		{
			"mesh":3,
			"name":"Cube.003",
			"translation":[
				0,
				1,
				0
			]
		},
		{
			"mesh":4,
			"name":"Cube.004",
			"translation":[
				0,
				1,
				0
			]
		}
	],
	"materials":[
		{
			"doubleSided":true,
			"name":"Material",
			"pbrMetallicRoughness":{
				"baseColorFactor":[
					0.053743161261081696,
					0.043983347713947296,
					0.8004080057144165,
					1
				],
				"metallicFactor":0,
				"roughnessFactor":0.5
			}
		}
	],
	"meshes":[
		{
			"name":"Cube",
			"primitives":[
				{
					"attributes":{
						"POSITION":0,
						"NORMAL":1,
						"TEXCOORD_0":2,
						"TANGENT":3
					},
					"indices":4,
					"material":0
				}
			]
		},
		{
			"name":"Cube.001",
			"primitives":[
				{
					"attributes":{
						"POSITION":5,
						"NORMAL":6,
						"TEXCOORD_0":7,
						"TANGENT":8
					},
					"indices":9,
					"material":0
				}
			]
		},
		{
			"name":"Cube.002",
			"primitives":[
				{
					"attributes":{
						"POSITION":10,
						"NORMAL":11,
						"TEXCOORD_0":12,
						"TANGENT":13
					},
					"indices":14,
					"material":0
				}
			]
		},
		{
			"name":"Cube.003",
			"primitives":[
				{
					"attributes":{
						"POSITION":15,
						"NORMAL":16,
						"TEXCOORD_0":17,
						"TANGENT":18
					},
					"indices":19,
					"material":0
				}
			]
		},
		{
			"name":"Cube.004",
			"primitives":[
				{
					"attributes":{
						"POSITION":20,
						"NORMAL":21,
						"TEXCOORD_0":22,
						"TANGENT":23
					},
					"indices":24,
					"material":0
				}
			]
		}
	],
	"accessors":[
		{
			"bufferView":0,
			"componentType":5126,
			"count":1811,
			"max":[
				1.0004754066467285,
				-1,
				1
			],
			"min":[
				-1.0004754066467285,
				-1.747477650642395,
				-1
			],
			"type":"VEC3"
		},
		{
			"bufferView":1,
			"componentType":5126,
			"count":1811,
			"type":"VEC3"
		},
		{
			"bufferView":2,
			"componentType":5126,
			"count":1811,
			"type":"VEC2"
		},
		{
			"bufferView":3,
			"componentType":5126,
			"count":1811,
			"type":"VEC4"
		},
		{
			"bufferView":4,
			"componentType":5123,
			"count":4908,
			"type":"SCALAR"
		},
		{
			"bufferView":5,
			"componentType":5126,
			"count":64,
			"max":[
				1,
				-1,
				0.5394895672798157
			],
			"min":[
				-1,
				-1,
				-0.5394895672798157
			],
			"type":"VEC3"
		},
		{
			"bufferView":6,
			"componentType":5126,
			"count":64,
			"type":"VEC3"
		},
		{
			"bufferView":7,
			"componentType":5126,
			"count":64,
			"type":"VEC2"
		},
		{
			"bufferView":8,
			"componentType":5126,
			"count":64,
			"type":"VEC4"
		},
		{
			"bufferView":9,
			"componentType":5123,
			"count":96,
			"type":"SCALAR"
		},
		{
			"bufferView":10,
			"componentType":5126,
			"count":16,
			"max":[
				0.5744523406028748,
				-1.737928032875061,
				0.3226725161075592
			],
			"min":[
				-0.5744523406028748,
				-1.737928032875061,
				-0.3226725161075592
			],
			"type":"VEC3"
		},
		{
			"bufferView":11,
			"componentType":5126,
			"count":16,
			"type":"VEC3"
		},
		{
			"bufferView":12,
			"componentType":5126,
			"count":16,
			"type":"VEC2"
		},
		{
			"bufferView":13,
			"componentType":5126,
			"count":16,
			"type":"VEC4"
		},
		{
			"bufferView":14,
			"componentType":5123,
			"count":24,
			"type":"SCALAR"
		},
		{
			"bufferView":15,
			"componentType":5126,
			"count":64,
			"max":[
				1,
				-1.737928032875061,
				0.3226725161075592
			],
			"min":[
				-1,
				-1.737928032875061,
				-0.3226725161075592
			],
			"type":"VEC3"
		},
		{
			"bufferView":16,
			"componentType":5126,
			"count":64,
			"type":"VEC3"
		},
		{
			"bufferView":17,
			"componentType":5126,
			"count":64,
			"type":"VEC2"
		},
		{
			"bufferView":18,
			"componentType":5126,
			"count":64,
			"type":"VEC4"
		},
		{
			"bufferView":19,
			"componentType":5123,
			"count":96,
			"type":"SCALAR"
		},
		{
			"bufferView":20,
			"componentType":5126,
			"count":64,
			"max":[
				1,
				-1.737928032875061,
				0.5239741802215576
			],
			"min":[
				-1,
				-1.737928032875061,
				-0.5239741802215576
			],
			"type":"VEC3"
		},
		{
			"bufferView":21,
			"componentType":5126,
			"count":64,
			"type":"VEC3"
		},
		{
			"bufferView":22,
			"componentType":5126,
			"count":64,
			"type":"VEC2"
		},
		{
			"bufferView":23,
			"componentType":5126,
			"count":64,
			"type":"VEC4"
		},
		{
			"bufferView":24,
			"componentType":5123,
			"count":120,
			"type":"SCALAR"
		}
	],
	"bufferViews":[
		{
			"buffer":0,
			"byteLength":21732,
			"byteOffset":0,
			"target":34962
		},
		{
			"buffer":0,
			"byteLength":21732,
			"byteOffset":21732,
			"target":34962
		},
		{
			"buffer":0,
			"byteLength":14488,
			"byteOffset":43464,
			"target":34962
		},
		{
			"buffer":0,
			"byteLength":28976,
			"byteOffset":57952,
			"target":34962
		},
		{
			"buffer":0,
			"byteLength":9816,
			"byteOffset":86928,
			"target":34963
		},
		{
			"buffer":0,
			"byteLength":768,
			"byteOffset":96744,
			"target":34962
		},
		{
			"buffer":0,
			"byteLength":768,
			"byteOffset":97512,
			"target":34962
		},
		{
			"buffer":0,
			"byteLength":512,
			"byteOffset":98280,
			"target":34962
		},
		{
			"buffer":0,
			"byteLength":1024,
			"byteOffset":98792,
			"target":34962
		},
		{
			"buffer":0,
			"byteLength":192,
			"byteOffset":99816,
			"target":34963
		},
		{
			"buffer":0,
			"byteLength":192,
			"byteOffset":100008,
			"target":34962
		},
		{
			"buffer":0,
			"byteLength":192,
			"byteOffset":100200,
			"target":34962
		},
		{
			"buffer":0,
			"byteLength":128,
			"byteOffset":100392,
			"target":34962
		},
		{
			"buffer":0,
			"byteLength":256,
			"byteOffset":100520,
			"target":34962
		},
		{
			"buffer":0,
			"byteLength":48,
			"byteOffset":100776,
			"target":34963
		},
		{
			"buffer":0,
			"byteLength":768,
			"byteOffset":100824,
			"target":34962
		},
		{
			"buffer":0,
			"byteLength":768,
			"byteOffset":101592,
			"target":34962
		},
		{
			"buffer":0,
			"byteLength":512,
			"byteOffset":102360,
			"target":34962
		},
		{
			"buffer":0,
			"byteLength":1024,
			"byteOffset":102872,
			"target":34962
		},
		{
			"buffer":0,
			"byteLength":192,
			"byteOffset":103896,
			"target":34963
		},
		{
			"buffer":0,
			"byteLength":768,
			"byteOffset":104088,
			"target":34962
		},
		{
			"buffer":0,
			"byteLength":768,
			"byteOffset":104856,
			"target":34962
		},
		{
			"buffer":0,
			"byteLength":512,
			"byteOffset":105624,
			"target":34962
		},
		{
			"buffer":0,
			"byteLength":1024,
			"byteOffset":106136,
			"target":34962
		},
		{
			"buffer":0,
			"byteLength":240,
			"byteOffset":107160,
			"target":34963
		}
	],
	"buffers":[
		{
			"byteLength":107400,
			"uri":"modular_units-d1af506d0d1c76b9d8074041a336acfe.bin"
		}
	]
}
