{
	"asset":{
		"generator":"Khronos glTF Blender I/O v4.5.48",
		"version":"2.0"
	},
	"extensionsUsed":[
		"KHR_lights_punctual"
	],
	"extensionsRequired":[
		"KHR_lights_punctual"
	],
	"extensions":{
		"KHR_lights_punctual":{
			"lights":[
				{
					"color":[
						1,
						1,
						1
					],
					"intensity":79.57747154594767,
					"type":"point",
					"name":"Light"
				}
			]
		}
	},
	"scene":0,
	"scenes":[
		{
			"name":"Scene",
			"nodes":[
				0,
				1,
				2
			]
		}
	],
	"nodes":[
		{
			"extensions":{
				"KHR_lights_punctual":{
					"light":0
				}
			},
			"name":"Light",
			"rotation":[
				-0.28416627645492554,
				0.7269423007965088,
				0.34203392267227173,
				0.5232754945755005
			],
			"translation":[
				4.076245307922363,
				5.903861999511719,
				-1.0054539442062378
			]
		},
		{
			"camera":0,
			"name":"Camera",
			"rotation":[
				-0.20997299253940582,
				0.3857799470424652,
				0.09062844514846802,
				0.8937962055206299
			],
			"translation":[
				7.358891487121582,
				4.958309173583984,
				6.925790786743164
			]
		},
		{
			"mesh":0,
			"name":"Cylinder",
			"scale":[
				0.44642871618270874,
				1.9333069324493408,
				0.44642871618270874
			],
			"translation":[
				0.32022932171821594,
				0.10285047441720963,
				0.22777488827705383
			]
		}
	],
	"cameras":[
		{
			"name":"Camera",
			"perspective":{
				"aspectRatio":1.7777777777777777,
				"yfov":0.39959652046304894,
				"zfar":100,
				"znear":0.10000000149011612
			},
			"type":"perspective"
		}
	],
	"materials":[
		{
			"doubleSided":true,
			"name":"Material.001",
			"normalTexture":{
				"index":0
			},
			"pbrMetallicRoughness":{
				"baseColorTexture":{
					"index":1
				},
				"metallicFactor":0,
				"metallicRoughnessTexture":{
					"index":2
				}
			}
		},
		{
			"doubleSided":true,
			"name":"Material.002",
			"pbrMetallicRoughness":{
				"baseColorFactor":[
					0.8002997636795044,
					0.5229109525680542,
					0.021618427708745003,
					1
				],
				"metallicFactor":0,
				"roughnessFactor":0.5
			}
		}
	],
	"meshes":[
		{
			"name":"Mesh",
			"primitives":[
				{
					"attributes":{
						"POSITION":0,
						"NORMAL":1,
						"TEXCOORD_0":2,
						"TANGENT":3
					},
					"indices":4,
					"material":0
				},
				{
					"attributes":{
						"POSITION":5,
						"NORMAL":6,
						"TEXCOORD_0":7,
						"TANGENT":8
					},
					"indices":9,
					"material":1
				}
			]
		}
	],
	"textures":[
		{
			"sampler":0,
			"source":0
		},
		{
			"sampler":0,
			"source":1
		},
		{
			"sampler":0,
			"source":2
		}
	],
	"images":[
		{
			"mimeType":"image/jpeg",
			"name":"Fabric046_1K-JPG_NormalGL.jpg",
			"uri":"../../../../Downloads/Fabric046_1K-JPG/Fabric046_1K-JPG_NormalGL.jpg"
		},
		{
			"mimeType":"image/jpeg",
			"name":"Fabric046_1K-JPG_Color.jpg.001",
			"uri":"../../../../Downloads/Fabric046_1K-JPG/Fabric046_1K-JPG_Color.jpg"
		},
		{
			"mimeType":"image/jpeg",
			"name":"Fabric046_1K-JPG_Roughness.jpg",
			"uri":"../../../../Downloads/Fabric046_1K-JPG/Fabric046_1K-JPG_Roughness.jpg"
		}
	],
	"accessors":[
		{
			"bufferView":0,
			"componentType":5126,
			"count":3453,
			"max":[
				0.40000006556510925,
				0.3692297339439392,
				0.3980786204338074
			],
			"min":[
				-0.397438108921051,
				-0.29569628834724426,
				-0.4216112792491913
			],
			"type":"VEC3"
		},
		{
			"bufferView":1,
			"componentType":5126,
			"count":3453,
			"type":"VEC3"
		},
		{
			"bufferView":2,
			"componentType":5126,
			"count":3453,
			"type":"VEC2"
		},
		{
			"bufferView":3,
			"componentType":5126,
			"count":3453,
			"type":"VEC4"
		},
		{
			"bufferView":4,
			"componentType":5123,
			"count":15552,
			"type":"SCALAR"
		},
		{
			"bufferView":5,
			"componentType":5126,
			"count":96,
			"max":[
				0.04584047570824623,
				0.21500585973262787,
				-0.40473076701164246
			],
			"min":[
				0.029955057427287102,
				-0.13335752487182617,
				-0.4206162691116333
			],
			"type":"VEC3"
		},
		{
			"bufferView":6,
			"componentType":5126,
			"count":96,
			"type":"VEC3"
		},
		{
			"bufferView":7,
			"componentType":5126,
			"count":96,
			"type":"VEC2"
		},
		{
			"bufferView":8,
			"componentType":5126,
			"count":96,
			"type":"VEC4"
		},
		{
			"bufferView":9,
			"componentType":5123,
			"count":144,
			"type":"SCALAR"
		}
	],
	"bufferViews":[
		{
			"buffer":0,
			"byteLength":41436,
			"byteOffset":0,
			"target":34962
		},
		{
			"buffer":0,
			"byteLength":41436,
			"byteOffset":41436,
			"target":34962
		},
		{
			"buffer":0,
			"byteLength":27624,
			"byteOffset":82872,
			"target":34962
		},
		{
			"buffer":0,
			"byteLength":55248,
			"byteOffset":110496,
			"target":34962
		},
		{
			"buffer":0,
			"byteLength":31104,
			"byteOffset":165744,
			"target":34963
		},
		{
			"buffer":0,
			"byteLength":1152,
			"byteOffset":196848,
			"target":34962
		},
		{
			"buffer":0,
			"byteLength":1152,
			"byteOffset":198000,
			"target":34962
		},
		{
			"buffer":0,
			"byteLength":768,
			"byteOffset":199152,
			"target":34962
		},
		{
			"buffer":0,
			"byteLength":1536,
			"byteOffset":199920,
			"target":34962
		},
		{
			"buffer":0,
			"byteLength":288,
			"byteOffset":201456,
			"target":34963
		}
	],
	"samplers":[
		{
			"magFilter":9729,
			"minFilter":9987
		}
	],
	"buffers":[
		{
			"byteLength":201744,
			"uri":"sleeping_bag-3d0e9daa4692f29ec14381af51aad292.bin"
		}
	]
}
